
<svg xmlns="http://www.w3.org/2000/svg" xmlns:xlink="http://www.w3.org/1999/xlink" data-name="Layer 1" preserveAspectRatio="xMidYMid meet" version="1.0" viewBox="-0.4 -0.4 355.0 415.7" zoomAndPan="magnify" style="fill: rgb(0, 0, 0);" original_string_length="5636"><defs><linearGradient xmlns:xlink="http://www.w3.org/1999/xlink" gradientUnits="userSpaceOnUse" id="__id0_sc92lkgf1o" x1="372.33" x2="-13.03" xlink:actuate="onLoad" xlink:show="other" xlink:type="simple" y1="207.48" y2="207.48"><stop offset=".14" style="stop-color: rgb(0, 92, 152);"/><stop offset="1" style="stop-color: rgb(19, 171, 37);"/></linearGradient></defs><path d="M218.74,207.48a11.27,11.27,0,1,1-11.26-11.27A11.27,11.27,0,0,1,218.74,207.48Zm-33.77,12A10.56,10.56,0,1,0,195.52,230,10.56,10.56,0,0,0,185,219.43Zm-22.51,23.22a9.85,9.85,0,1,0,9.84,9.84A9.84,9.84,0,0,0,162.46,242.65ZM140,265.86a9.14,9.14,0,1,0,9.14,9.14A9.14,9.14,0,0,0,140,265.86Zm-22.51,23.22a8.43,8.43,0,1,0,8.43,8.43A8.42,8.42,0,0,0,117.44,289.08ZM94.93,312.29a7.73,7.73,0,1,0,7.73,7.73A7.73,7.73,0,0,0,94.93,312.29ZM72.42,335.51a7,7,0,1,0,7,7A7,7,0,0,0,72.42,335.51ZM49.91,358.73A6.31,6.31,0,1,0,56.22,365,6.31,6.31,0,0,0,49.91,358.73ZM27.4,381.94A5.61,5.61,0,1,0,33,387.55,5.61,5.61,0,0,0,27.4,381.94ZM4.9,405.16a4.9,4.9,0,1,0,4.89,4.9A4.9,4.9,0,0,0,4.9,405.16ZM252.77,196.21A11.27,11.27,0,1,0,264,207.48,11.28,11.28,0,0,0,252.77,196.21Zm-22.51,23.22A10.56,10.56,0,1,0,240.81,230,10.56,10.56,0,0,0,230.26,219.43Zm-22.51,23.22a9.85,9.85,0,1,0,9.84,9.84A9.84,9.84,0,0,0,207.75,242.65Zm-22.51,23.21a9.14,9.14,0,1,0,9.14,9.14A9.14,9.14,0,0,0,185.24,265.86Zm-22.51,23.22a8.43,8.43,0,1,0,8.43,8.43A8.42,8.42,0,0,0,162.73,289.08Zm-22.51,23.21A7.73,7.73,0,1,0,148,320,7.72,7.72,0,0,0,140.22,312.29Zm-22.51,23.22a7,7,0,1,0,7,7A7,7,0,0,0,117.71,335.51ZM95.2,358.73a6.31,6.31,0,1,0,6.31,6.31A6.31,6.31,0,0,0,95.2,358.73ZM72.69,381.94a5.61,5.61,0,1,0,5.61,5.61A5.61,5.61,0,0,0,72.69,381.94Zm-22.5,23.22a4.9,4.9,0,1,0,4.89,4.9A4.9,4.9,0,0,0,50.19,405.16ZM298.05,196.21a11.27,11.27,0,1,0,11.27,11.27A11.27,11.27,0,0,0,298.05,196.21Zm-22.5,23.22A10.56,10.56,0,1,0,286.1,230,10.56,10.56,0,0,0,275.55,219.43ZM253,242.65a9.85,9.85,0,1,0,9.84,9.84A9.84,9.84,0,0,0,253,242.65Zm-22.51,23.21a9.14,9.14,0,1,0,9.14,9.14A9.14,9.14,0,0,0,230.53,265.86ZM208,289.08a8.43,8.43,0,1,0,8.43,8.43A8.42,8.42,0,0,0,208,289.08Zm-22.51,23.21a7.73,7.73,0,1,0,7.73,7.73A7.72,7.72,0,0,0,185.51,312.29ZM163,335.51a7,7,0,1,0,7,7A7,7,0,0,0,163,335.51Zm-22.51,23.22A6.31,6.31,0,1,0,146.8,365,6.31,6.31,0,0,0,140.49,358.73ZM118,381.94a5.61,5.61,0,1,0,5.61,5.61A5.61,5.61,0,0,0,118,381.94Zm-22.5,23.22a4.9,4.9,0,1,0,4.89,4.9A4.9,4.9,0,0,0,95.48,405.16ZM343.34,196.21a11.27,11.27,0,1,0,11.27,11.27A11.27,11.27,0,0,0,343.34,196.21Zm-22.5,23.22A10.56,10.56,0,1,0,331.39,230,10.56,10.56,0,0,0,320.84,219.43Zm-22.51,23.22a9.85,9.85,0,1,0,9.84,9.84A9.84,9.84,0,0,0,298.33,242.65Zm-22.51,23.21A9.14,9.14,0,1,0,285,275,9.14,9.14,0,0,0,275.82,265.86Zm-22.51,23.22a8.43,8.43,0,1,0,8.43,8.43A8.42,8.42,0,0,0,253.31,289.08ZM230.8,312.29a7.73,7.73,0,1,0,7.73,7.73A7.72,7.72,0,0,0,230.8,312.29Zm-22.51,23.22a7,7,0,1,0,7,7A7,7,0,0,0,208.29,335.51Zm-22.51,23.22a6.31,6.31,0,1,0,6.31,6.31A6.31,6.31,0,0,0,185.78,358.73Zm-22.51,23.21a5.61,5.61,0,1,0,5.61,5.61A5.61,5.61,0,0,0,163.27,381.94Zm-22.5,23.22a4.9,4.9,0,1,0,4.89,4.9A4.9,4.9,0,0,0,140.77,405.16ZM185,174.41A10.56,10.56,0,1,0,195.52,185,10.56,10.56,0,0,0,185,174.41Zm-22.51-21.8a9.85,9.85,0,1,0,9.84,9.85A9.85,9.85,0,0,0,162.46,152.61ZM140,130.81a9.14,9.14,0,1,0,9.14,9.14A9.14,9.14,0,0,0,140,130.81ZM117.44,109a8.43,8.43,0,1,0,8.43,8.43A8.42,8.42,0,0,0,117.44,109ZM94.93,87.21a7.73,7.73,0,1,0,7.73,7.72A7.72,7.72,0,0,0,94.93,87.21ZM72.42,65.4a7,7,0,1,0,7,7A7,7,0,0,0,72.42,65.4ZM49.91,43.6a6.31,6.31,0,1,0,6.31,6.31A6.32,6.32,0,0,0,49.91,43.6ZM27.4,21.8A5.61,5.61,0,1,0,33,27.41,5.61,5.61,0,0,0,27.4,21.8ZM4.9,0A4.9,4.9,0,1,0,9.79,4.9,4.9,4.9,0,0,0,4.9,0ZM230.26,174.41A10.56,10.56,0,1,0,240.81,185,10.56,10.56,0,0,0,230.26,174.41Zm-22.51-2.11a9.85,9.85,0,1,0-9.85-9.84A9.83,9.83,0,0,0,207.75,172.3Zm-22.51-23.21A9.14,9.14,0,1,0,176.1,140,9.14,9.14,0,0,0,185.24,149.09Zm-22.51-23.22a8.43,8.43,0,1,0-8.43-8.43A8.42,8.42,0,0,0,162.73,125.87Zm-22.51-23.21a7.73,7.73,0,1,0-7.72-7.73A7.73,7.73,0,0,0,140.22,102.66ZM117.71,79.44a7,7,0,1,0-7-7A7,7,0,0,0,117.71,79.44ZM95.2,56.22a6.31,6.31,0,1,0-6.31-6.31A6.3,6.3,0,0,0,95.2,56.22ZM72.69,33a5.61,5.61,0,1,0-5.6-5.6A5.61,5.61,0,0,0,72.69,33ZM50.19,9.79a4.9,4.9,0,1,0-4.9-4.89A4.89,4.89,0,0,0,50.19,9.79ZM275.55,174.41A10.56,10.56,0,1,0,286.1,185,10.56,10.56,0,0,0,275.55,174.41ZM253,172.3a9.85,9.85,0,1,0-9.85-9.84A9.83,9.83,0,0,0,253,172.3Zm-22.51-23.21a9.14,9.14,0,1,0-9.14-9.14A9.14,9.14,0,0,0,230.53,149.09ZM208,125.87a8.43,8.43,0,1,0-8.43-8.43A8.42,8.42,0,0,0,208,125.87Zm-22.51-23.21a7.73,7.73,0,1,0-7.72-7.73A7.73,7.73,0,0,0,185.51,102.66ZM163,79.44a7,7,0,1,0-7-7A7,7,0,0,0,163,79.44ZM140.49,56.22a6.31,6.31,0,1,0-6.31-6.31A6.3,6.3,0,0,0,140.49,56.22ZM118,33a5.61,5.61,0,1,0-5.6-5.6A5.61,5.61,0,0,0,118,33ZM95.48,9.79a4.9,4.9,0,1,0-4.9-4.89A4.89,4.89,0,0,0,95.48,9.79ZM320.84,174.41A10.56,10.56,0,1,0,331.39,185,10.56,10.56,0,0,0,320.84,174.41Zm-22.51-2.11a9.85,9.85,0,1,0-9.85-9.84A9.83,9.83,0,0,0,298.33,172.3Zm-22.51-23.21a9.14,9.14,0,1,0-9.14-9.14A9.14,9.14,0,0,0,275.82,149.09Zm-22.51-23.22a8.43,8.43,0,1,0-8.43-8.43A8.42,8.42,0,0,0,253.31,125.87ZM230.8,102.66a7.73,7.73,0,1,0-7.72-7.73A7.73,7.73,0,0,0,230.8,102.66ZM208.29,79.44a7,7,0,1,0-7-7A7,7,0,0,0,208.29,79.44ZM185.78,56.22a6.31,6.31,0,1,0-6.31-6.31A6.3,6.3,0,0,0,185.78,56.22ZM163.27,33a5.61,5.61,0,1,0-5.6-5.6A5.61,5.61,0,0,0,163.27,33ZM140.77,9.79a4.9,4.9,0,1,0-4.9-4.89A4.89,4.89,0,0,0,140.77,9.79Z" style="fill: url(&quot;#__id0_sc92lkgf1o&quot;);"/></svg>