<svg width="167" height="60" viewBox="0 0 167 60" fill="none" xmlns="http://www.w3.org/2000/svg">
<path d="M33.1541 36.9543H51.1682V22.9055H36.9209C36.9209 28.0249 35.5454 32.8191 33.1541 36.9543Z" fill="#979797" style="fill:#979797;fill:color(display-p3 0.5922 0.5922 0.5922);fill-opacity:1;"/>
<path d="M31.3064 17.084C30.0431 18.3473 28.9007 19.7315 27.8964 21.2163H51.1708V8.85681C43.4098 8.85681 36.3883 12.0021 31.3064 17.084Z" fill="#979797" style="fill:#979797;fill:color(display-p3 0.5922 0.5922 0.5922);fill-opacity:1;"/>
<path d="M26.8465 22.9056H8.8324V36.9543H23.0797C23.0797 31.835 24.4552 27.0408 26.8465 22.9056Z" fill="#478ECC" style="fill:#478ECC;fill:color(display-p3 0.2784 0.5569 0.8000);fill-opacity:1;"/>
<path d="M8.82898 51C16.59 51 23.6115 47.8547 28.6934 42.7728C29.9567 41.5095 31.0992 40.1253 32.1035 38.6405H8.82898V51Z" fill="#478ECC" style="fill:#478ECC;fill:color(display-p3 0.2784 0.5569 0.8000);fill-opacity:1;"/>
<path d="M33.1535 36.9543C35.5448 32.8192 36.9203 28.025 36.9203 22.9056H26.8428C24.4514 27.0408 23.0759 31.835 23.0759 36.9543H33.1535Z" fill="#005C98" style="fill:#005C98;fill:color(display-p3 0.0000 0.3608 0.5961);fill-opacity:1;"/>
<path d="M67.9069 27.2641C67.8875 27.1497 67.8703 26.8499 67.7366 26.5286C67.2275 25.2647 65.6984 25.2647 65.4158 25.2647C63.8305 25.2647 63.2654 26.0196 63.2654 26.8111C63.2654 27.208 63.4164 27.3956 63.5286 27.5272C63.8499 27.8852 64.1886 27.9607 64.9995 28.2066C66.0758 28.5086 67.1887 28.735 68.2262 29.0931C69.1687 29.4144 69.9818 29.8479 70.5469 30.6589C71.1314 31.4893 71.1508 32.3003 71.1508 32.6777C71.1508 33.6202 70.9244 34.414 70.3399 35.1689C69.6238 36.1114 68.3016 37 65.735 37C62.3962 37 60.8865 35.4708 60.3386 34.0559C60.1682 33.6591 60.0173 33.1501 60 32.2269H62.8686C62.888 32.6605 62.9441 33.094 63.1705 33.5102C63.8866 34.7547 65.6229 34.7375 65.8881 34.7375C66.0585 34.7375 66.436 34.7375 66.8695 34.6253C68.0579 34.304 68.3038 33.4369 68.3038 32.9452C68.3038 32.7575 68.2844 32.3607 67.8897 32.0199C67.3807 31.623 66.0025 31.3038 65.418 31.1334C64.8529 30.9824 64.2856 30.812 63.7378 30.6244C62.3984 30.1909 61.1906 29.7574 60.701 28.2842C60.5133 27.6997 60.4939 27.2274 60.4939 27.0009C60.4939 26.7184 60.5306 25.9829 60.908 25.2647C61.4731 24.1884 62.8147 23 65.5495 23C65.7954 23 66.6625 23 67.4368 23.2071C68.0407 23.3775 69.833 23.9814 70.4369 25.9053C70.6246 26.5092 70.6246 27.057 70.644 27.2835L67.9091 27.2641H67.9069Z" fill="#231F20" style="fill:#231F20;fill:color(display-p3 0.1373 0.1216 0.1255);fill-opacity:1;"/>
<path d="M79.9617 27.868C81.1307 28.886 81.5836 30.3203 81.5836 31.8107C81.5836 32.434 81.547 34.1314 80.2442 35.5096C79.6791 36.0941 78.5835 36.9439 76.6402 36.9439C76.3188 36.9439 75.4712 36.9245 74.6214 36.5859C72.6026 35.7943 71.66 33.9071 71.66 31.8128C71.66 30.7754 71.8671 30.0766 72.0375 29.6991C72.4516 28.6423 73.6594 26.755 76.6035 26.7184C77.2074 26.7184 78.6784 26.755 79.9617 27.8701V27.868ZM74.3216 31.8107C74.3216 33.3765 74.8112 34.1702 75.4345 34.6038C75.9241 34.9251 76.4158 34.9424 76.6423 34.9424C76.83 34.9424 77.3411 34.9036 77.8307 34.5844C78.6978 33.9804 78.907 32.7726 78.907 31.774C78.907 30.7754 78.7193 29.7746 77.889 29.1513C77.38 28.7738 76.8321 28.7372 76.6056 28.7372C75.5121 28.7372 74.3216 29.5287 74.3216 31.8128V31.8107Z" fill="#231F20" style="fill:#231F20;fill:color(display-p3 0.1373 0.1216 0.1255);fill-opacity:1;"/>
<path d="M91.3001 36.6614H88.7723V35.3026C88.5092 35.6606 88.3755 35.831 88.2072 35.982C87.8104 36.3594 87.0188 36.9439 85.6794 36.9439C85.151 36.9439 83.2444 36.8123 82.5844 34.9812C82.3773 34.3773 82.3579 33.754 82.3579 33.1134V27.0009H84.9806V32.3412C85 33.0767 84.9612 33.342 85.0755 33.7194C85.2071 34.1163 85.5845 34.7202 86.622 34.7202C86.829 34.7202 87.3963 34.7008 87.8859 34.3039C88.6968 33.6634 88.6774 32.7187 88.6968 31.7955V27.0031H91.3001V36.6635V36.6614Z" fill="#231F20" style="fill:#231F20;fill:color(display-p3 0.1373 0.1216 0.1255);fill-opacity:1;"/>
<path d="M105.546 30.3785C105.526 30.2642 105.509 30.1154 105.414 29.9062C105.112 29.1146 104.357 28.7178 103.546 28.7178C102.377 28.7178 101.131 29.4727 101.131 31.8883C101.131 32.2852 101.131 34.9079 103.508 34.9079C104.735 34.9079 105.47 34.1336 105.639 32.9646H108.205C108.074 33.8704 107.808 34.6447 107.204 35.3608C105.921 36.89 104.148 36.9461 103.488 36.9461C102.319 36.9461 101.262 36.7002 100.318 35.9841C99.6016 35.4363 98.4498 34.2285 98.4498 31.9271C98.4498 31.6058 98.4865 30.6072 98.8639 29.6625C99.2975 28.5862 100.525 26.7184 103.505 26.7184C106.506 26.7378 107.694 28.4546 108.015 29.6625C108.071 29.8501 108.11 30.0011 108.147 30.3785H105.544H105.546Z" fill="#231F20" style="fill:#231F20;fill:color(display-p3 0.1373 0.1216 0.1255);fill-opacity:1;"/>
<path d="M110.998 32.5095C111.018 32.6605 111.018 32.9818 111.111 33.3204C111.242 33.8855 111.695 35.0373 113.319 35.0373C113.658 35.0373 114.376 34.9812 114.904 34.2263C114.98 34.1142 115.075 33.9632 115.206 33.6612H117.734C117.698 33.7928 117.622 34.1142 117.452 34.4528C116.979 35.4341 116.093 36.2645 115.055 36.642C114.301 36.9245 113.49 36.9439 113.244 36.9439C112.886 36.9439 112.036 36.9245 111.149 36.5665C109.243 35.7749 108.3 33.8489 108.32 31.8689C108.32 29.0391 110.226 26.7184 113.168 26.7184C113.641 26.7184 114.81 26.7745 115.905 27.5682C118.019 29.1146 117.905 31.8322 117.905 32.5116H110.998V32.5095ZM115.204 30.756C115.185 30.605 115.148 30.1715 114.958 29.7552C114.62 29.0197 113.921 28.5862 113.147 28.5862C112.336 28.5862 111.617 29.0391 111.259 29.7746C111.145 30.0011 111.072 30.247 111.014 30.756H115.202H115.204Z" fill="#231F20" style="fill:#231F20;fill:color(display-p3 0.1373 0.1216 0.1255);fill-opacity:1;"/>
<path d="M133.035 36.6614H130.28L130.412 26.4164L127.054 36.6614H124.752L121.355 26.4164L121.468 36.6614H118.713V23.3408H122.846L125.921 32.8114L128.941 23.3408H133.035V36.6614Z" fill="#005C98" style="fill:#005C98;fill:color(display-p3 0.0000 0.3608 0.5961);fill-opacity:1;"/>
<path d="M136.339 32.5095C136.358 32.6605 136.358 32.9818 136.451 33.3204C136.582 33.8855 137.035 35.0373 138.659 35.0373C138.998 35.0373 139.716 34.9812 140.245 34.2263C140.32 34.1142 140.415 33.9632 140.547 33.6612H143.075C143.036 33.7928 142.96 34.1142 142.792 34.4528C142.32 35.4341 141.433 36.2645 140.396 36.642C139.641 36.9245 138.83 36.9439 138.584 36.9439C138.226 36.9439 137.376 36.9245 136.49 36.5665C134.583 35.7749 133.641 33.8489 133.66 31.8689C133.66 29.0391 135.567 26.7184 138.509 26.7184C138.981 26.7184 140.15 26.7745 141.246 27.5682C143.359 29.1146 143.245 31.8322 143.245 32.5116H136.339V32.5095ZM140.547 30.756C140.527 30.605 140.491 30.1715 140.301 29.7552C139.962 29.0197 139.263 28.5862 138.489 28.5862C137.678 28.5862 136.96 29.0391 136.602 29.7746C136.488 30.0011 136.414 30.247 136.356 30.756H140.545H140.547Z" fill="#005C98" style="fill:#005C98;fill:color(display-p3 0.0000 0.3608 0.5961);fill-opacity:1;"/>
<path d="M150.958 23.3408H153.6V36.6614H151.072V35.4536C150.941 35.6606 150.827 35.7922 150.751 35.8871C150.374 36.3206 149.582 36.9439 148.167 36.9439C147.054 36.9439 146.11 36.6226 145.299 35.8504C143.808 34.4355 143.808 32.3973 143.808 31.7934C143.808 31.4548 143.808 30.5856 144.11 29.6603C144.695 27.8874 146.129 26.7162 148.016 26.7162C149.336 26.7162 150.149 27.2641 150.525 27.6415C150.712 27.8119 150.807 27.9629 150.958 28.1699V23.3408ZM147.768 29.0197C147.108 29.3583 146.485 30.1715 146.485 31.7934C146.485 32.0393 146.465 33.4908 147.352 34.2846C147.9 34.7936 148.504 34.7936 148.767 34.7936C149.86 34.7936 151.031 34.0948 151.031 31.8128C151.031 31.5497 151.07 30.1154 150.145 29.3044C149.899 29.0974 149.504 28.8127 148.75 28.8127C148.26 28.8127 147.939 28.9442 147.768 29.0197Z" fill="#005C98" style="fill:#005C98;fill:color(display-p3 0.0000 0.3608 0.5961);fill-opacity:1;"/>
<path d="M157.771 23.3386H154.374L158.574 29.4576L153.997 36.6614H157.336L160.316 31.8883L163.224 36.6614H166.336L157.771 23.3386Z" fill="#005C98" style="fill:#005C98;fill:color(display-p3 0.0000 0.3608 0.5961);fill-opacity:1;"/>
<path d="M166.336 23.3386H163.11L161.358 26.4315H164.343L166.336 23.3386Z" fill="#005C98" style="fill:#005C98;fill:color(display-p3 0.0000 0.3608 0.5961);fill-opacity:1;"/>
<path d="M98.3957 29.3562C98.2641 29.3238 97.6753 29.1923 97.1986 29.1923C96.3294 29.1923 95.4775 29.6668 95.1992 30.536C95.0677 30.9134 95.0677 31.3383 95.0526 31.733V36.6592H92.4126V26.9945H95.0526V28.4201C95.0849 28.3554 95.1992 28.1095 95.3631 27.896C96.1504 26.8629 97.3129 26.7809 97.7572 26.7809C97.9384 26.7809 98.0851 26.7982 98.4129 26.8801L98.3957 29.3562Z" fill="#231F20" style="fill:#231F20;fill:color(display-p3 0.1373 0.1216 0.1255);fill-opacity:1;"/>
</svg>
