<svg width="107" height="14" viewBox="0 0 107 14" fill="none" xmlns="http://www.w3.org/2000/svg">
    <path d="M7.90694 4.26406C7.88753 4.14975 7.87028 3.84995 7.73656 3.52858C7.22754 2.26468 5.69835 2.26467 5.41581 2.26467C3.83053 2.26467 3.26544 3.01957 3.26544 3.81113C3.26544 4.20798 3.41642 4.39563 3.52858 4.5272C3.84995 4.88523 4.18857 4.96072 4.99954 5.2066C6.0758 5.50855 7.18872 5.73502 8.22616 6.09305C9.16869 6.41442 9.98182 6.84794 10.5469 7.65891C11.1314 8.48929 11.1508 9.30026 11.1508 9.67771C11.1508 10.6202 10.9244 11.414 10.3399 12.1689C9.62378 13.1114 8.30165 14 5.73502 14C2.39624 14 0.886456 12.4708 0.338621 11.0559C0.168231 10.6591 0.0172547 10.1501 0 9.22693H2.86858C2.888 9.66045 2.94408 10.094 3.17054 10.5102C3.88661 11.7547 5.62286 11.7375 5.88815 11.7375C6.05854 11.7375 6.43599 11.7375 6.86951 11.6253C8.05792 11.304 8.3038 10.4369 8.3038 9.94516C8.3038 9.75751 8.28439 9.36065 7.88969 9.01987C7.38068 8.62302 6.00246 8.30381 5.41796 8.13342C4.85287 7.98244 4.28563 7.81205 3.73779 7.6244C2.3984 7.19088 1.19057 6.75736 0.700971 5.28424C0.513326 4.69974 0.493913 4.2274 0.493913 4.00093C0.493913 3.71838 0.530579 2.9829 0.908025 2.26467C1.47311 1.18841 2.81467 0 5.54953 0C5.79541 0 6.66245 4.74376e-06 7.43676 0.207061C8.04067 0.37745 9.833 0.981359 10.4369 2.90525C10.6246 3.50917 10.6246 4.057 10.644 4.28347L7.9091 4.26406H7.90694Z" fill="#231F20" style="fill:#231F20;fill:color(display-p3 0.1373 0.1216 0.1255);fill-opacity:1;"/>
    <path d="M19.9617 4.86797C21.1307 5.886 21.5836 7.32029 21.5836 8.81066C21.5836 9.43399 21.547 11.1314 20.2442 12.5096C19.6791 13.0941 18.5835 13.9439 16.6402 13.9439C16.3188 13.9439 15.4712 13.9245 14.6214 13.5859C12.6026 12.7943 11.66 10.9071 11.66 8.81282C11.66 7.77538 11.8671 7.07657 12.0375 6.69912C12.4516 5.64227 13.6594 3.75505 16.6035 3.71838C17.2074 3.71838 18.6784 3.75505 19.9617 4.87013V4.86797ZM14.3216 8.81066C14.3216 10.3765 14.8112 11.1702 15.4345 11.6038C15.9241 11.9251 16.4158 11.9424 16.6423 11.9424C16.83 11.9424 17.3411 11.9036 17.8307 11.5844C18.6978 10.9804 18.907 9.77261 18.907 8.774C18.907 7.77539 18.7193 6.77462 17.889 6.15129C17.38 5.77384 16.8321 5.73718 16.6056 5.73718C15.5121 5.73718 14.3216 6.52874 14.3216 8.81282V8.81066Z" fill="#231F20" style="fill:#231F20;fill:color(display-p3 0.1373 0.1216 0.1255);fill-opacity:1;"/>
    <path d="M31.3001 13.6614H28.7723V12.3026C28.5092 12.6606 28.3755 12.831 28.2072 12.982C27.8104 13.3594 27.0188 13.9439 25.6794 13.9439C25.151 13.9439 23.2444 13.8123 22.5844 11.9812C22.3773 11.3773 22.3579 10.754 22.3579 10.1134V4.00092H24.9806V9.34123C25 10.0767 24.9612 10.342 25.0755 10.7194C25.2071 11.1163 25.5845 11.7202 26.622 11.7202C26.829 11.7202 27.3963 11.7008 27.8859 11.3039C28.6968 10.6634 28.6774 9.71867 28.6968 8.79555V4.00307H31.3001V13.6635V13.6614Z" fill="#231F20" style="fill:#231F20;fill:color(display-p3 0.1373 0.1216 0.1255);fill-opacity:1;"/>
    <path d="M45.5458 7.37853C45.5264 7.26422 45.5091 7.11539 45.4142 6.90618C45.1123 6.11462 44.3574 5.71776 43.5464 5.71776C42.3774 5.71776 41.1308 6.47266 41.1308 8.88831C41.1308 9.28517 41.1308 11.9079 43.5076 11.9079C44.7348 11.9079 45.4703 11.1336 45.6385 9.96457H48.2052C48.0736 10.8704 47.8083 11.6447 47.2044 12.3608C45.9211 13.89 44.1482 13.9461 43.4882 13.9461C42.3192 13.9461 41.2623 13.7002 40.3176 12.9841C39.6016 12.4363 38.4498 11.2285 38.4498 8.92713C38.4498 8.60576 38.4865 7.60715 38.8639 6.66246C39.2975 5.5862 40.5247 3.71838 43.5054 3.71838C46.5056 3.7378 47.694 5.45463 48.0154 6.66246C48.0715 6.8501 48.1103 7.00108 48.1469 7.37853H45.5436H45.5458Z" fill="#231F20" style="fill:#231F20;fill:color(display-p3 0.1373 0.1216 0.1255);fill-opacity:1;"/>
    <path d="M50.9984 9.50947C51.0178 9.66045 51.0178 9.98182 51.1106 10.3204C51.2421 10.8855 51.6951 12.0373 53.3192 12.0373C53.6578 12.0373 54.376 11.9812 54.9044 11.2263C54.9799 11.1142 55.0748 10.9632 55.2064 10.6612H57.7342C57.6975 10.7928 57.622 11.1142 57.4517 11.4528C56.9793 12.4341 56.0929 13.2645 55.0554 13.642C54.3005 13.9245 53.4896 13.9439 53.2437 13.9439C52.8856 13.9439 52.0359 13.9245 51.1494 13.5665C49.2428 12.7749 48.3002 10.8489 48.3196 8.86889C48.3196 6.03913 50.2263 3.71838 53.1682 3.71838C53.6405 3.71838 54.8095 3.77446 55.9052 4.56818C58.0189 6.11462 57.9046 8.83223 57.9046 9.51163H50.9984V9.50947ZM55.2042 7.75597C55.1848 7.605 55.1482 7.17147 54.9584 6.7552C54.6197 6.01972 53.9209 5.5862 53.1466 5.5862C52.3357 5.5862 51.6174 6.03913 51.2594 6.77461C51.1451 7.00108 51.0718 7.24696 51.0135 7.75597H55.2021H55.2042Z" fill="#231F20" style="fill:#231F20;fill:color(display-p3 0.1373 0.1216 0.1255);fill-opacity:1;"/>
    <path d="M73.0346 13.6614H70.2803L70.4119 3.41643L67.0537 13.6614H64.7524L61.3554 3.41643L61.4675 13.6614H58.7133V0.34079H62.8457L65.9214 9.81144L68.941 0.34079H73.0346V13.6614Z" fill="#005C98" style="fill:#005C98;fill:color(display-p3 0.0000 0.3608 0.5961);fill-opacity:1;"/>
    <path d="M76.3387 9.50947C76.3582 9.66045 76.3582 9.98182 76.4509 10.3204C76.5825 10.8855 77.0354 12.0373 78.6595 12.0373C78.9981 12.0373 79.7163 11.9812 80.2448 11.2263C80.3203 11.1142 80.4152 10.9632 80.5467 10.6612H83.0745C83.0357 10.7928 82.9602 11.1142 82.792 11.4528C82.3196 12.4341 81.4332 13.2645 80.3957 13.642C79.6409 13.9245 78.8299 13.9439 78.584 13.9439C78.226 13.9439 77.3762 13.9245 76.4897 13.5665C74.5831 12.7749 73.6406 10.8489 73.66 8.86889C73.66 6.03913 75.5666 3.71838 78.5085 3.71838C78.9809 3.71838 80.1499 3.77446 81.2455 4.56818C83.3592 6.11462 83.2449 8.83223 83.2449 9.51163H76.3387V9.50947ZM80.5467 7.75597C80.5273 7.605 80.4906 7.17147 80.3008 6.7552C79.9622 6.01972 79.2634 5.5862 78.4891 5.5862C77.6781 5.5862 76.9599 6.03913 76.6019 6.77461C76.4876 7.00108 76.4142 7.24696 76.356 7.75597H80.5446H80.5467Z" fill="#005C98" style="fill:#005C98;fill:color(display-p3 0.0000 0.3608 0.5961);fill-opacity:1;"/>
    <path d="M90.9581 0.34079H93.6003V13.6614H91.0724V12.4536C90.9409 12.6606 90.8266 12.7922 90.7511 12.8871C90.3736 13.3206 89.5821 13.9439 88.1672 13.9439C87.0543 13.9439 86.1096 13.6226 85.2986 12.8504C83.8082 11.4355 83.8082 9.39733 83.8082 8.79342C83.8082 8.45479 83.8082 7.58559 84.1102 6.66031C84.6947 4.88739 86.129 3.71623 88.0162 3.71623C89.3362 3.71623 90.1493 4.26407 90.5246 4.64151C90.7123 4.8119 90.8072 4.96288 90.9581 5.16993V0.34079ZM87.7682 6.01973C87.1082 6.35835 86.4849 7.17148 86.4849 8.79342C86.4849 9.0393 86.4654 10.4908 87.3519 11.2846C87.8997 11.7936 88.5036 11.7936 88.7668 11.7936C89.8603 11.7936 91.0315 11.0948 91.0315 8.81283C91.0315 8.54969 91.0703 7.1154 90.145 6.30443C89.8991 6.09737 89.5044 5.81267 88.7495 5.81267C88.2599 5.81267 87.9386 5.94424 87.7682 6.01973Z" fill="#005C98" style="fill:#005C98;fill:color(display-p3 0.0000 0.3608 0.5961);fill-opacity:1;"/>
    <path d="M97.7713 0.338623H94.3743L98.5736 6.45756L93.9968 13.6614H97.3356L100.316 8.88831L103.224 13.6614H106.336L97.7713 0.338623Z" fill="#005C98" style="fill:#005C98;fill:color(display-p3 0.0000 0.3608 0.5961);fill-opacity:1;"/>
    <path d="M106.336 0.338623H103.11L101.358 3.43152H104.343L106.336 0.338623Z" fill="#005C98" style="fill:#005C98;fill:color(display-p3 0.0000 0.3608 0.5961);fill-opacity:1;"/>
    <path d="M38.3957 6.35619C38.2641 6.32384 37.6753 6.19227 37.1986 6.19227C36.3294 6.19227 35.4775 6.66677 35.1992 7.53598C35.0677 7.91342 35.0677 8.33832 35.0526 8.73302V13.6592H32.4126V3.99446H35.0526V5.42012C35.0849 5.35542 35.1992 5.10954 35.3631 4.89601C36.1504 3.86289 37.3129 3.78093 37.7572 3.78093C37.9384 3.78093 38.0851 3.79819 38.4129 3.88015L38.3957 6.35619Z" fill="#231F20" style="fill:#231F20;fill:color(display-p3 0.1373 0.1216 0.1255);fill-opacity:1;"/>
</svg>
