<svg width="509" height="18" viewBox="0 0 509 18" fill="none" xmlns="http://www.w3.org/2000/svg">
<line x1="229.5" y1="9.5" x2="-4.37114e-08" y2="9.49998" stroke="black" style="stroke:black;stroke-opacity:1;"/>
<path d="M246.328 9.464C246.304 8.192 246.706 7.088 247.534 6.152C248.374 5.216 249.43 4.76 250.702 4.784C251.974 4.76 253.024 5.216 253.852 6.152C254.68 7.088 255.082 8.192 255.058 9.464C255.082 10.736 254.68 11.84 253.852 12.776C253.024 13.712 251.974 14.168 250.702 14.144C249.43 14.168 248.374 13.712 247.534 12.776C246.706 11.84 246.304 10.736 246.328 9.464ZM252.736 11.84C253.252 11.18 253.51 10.388 253.51 9.464C253.51 8.54 253.252 7.754 252.736 7.106C252.232 6.446 251.554 6.116 250.702 6.116C249.85 6.116 249.166 6.446 248.65 7.106C248.134 7.754 247.876 8.54 247.876 9.464C247.876 10.388 248.134 11.18 248.65 11.84C249.166 12.488 249.85 12.812 250.702 12.812C251.554 12.812 252.232 12.488 252.736 11.84ZM257.239 14V4.928H258.733V6.494C259.333 5.354 260.221 4.784 261.397 4.784C261.805 4.784 262.231 4.874 262.675 5.054L262.369 6.44C261.985 6.236 261.595 6.134 261.199 6.134C260.455 6.134 259.855 6.524 259.399 7.304C258.955 8.072 258.733 9.164 258.733 10.58V14H257.239Z" fill="black" style="fill:black;fill-opacity:1;"/>
<line x1="509" y1="9.5" x2="279.5" y2="9.49998" stroke="black" style="stroke:black;stroke-opacity:1;"/>
</svg>
