<svg xmlns="http://www.w3.org/2000/svg" width="44" height="44" viewBox="0 0 44 44" fill="none">
  <path d="M21.2 14H19.6C15.6 14 14 15.6 14 19.6V24.4C14 28.4 15.6 30 19.6 30H24.4C28.4 30 30 28.4 30 24.4V22.8" stroke="#231F20" style="stroke:#231F20;stroke:color(display-p3 0.1373 0.1216 0.1255);stroke-opacity:1;" stroke-width="2" stroke-linecap="round" stroke-linejoin="round"/>
  <path d="M25.0971 15.0036L18.877 21.2246C18.6402 21.4614 18.4034 21.9272 18.356 22.2667L18.0166 24.643C17.8903 25.5035 18.4981 26.1035 19.3585 25.9851L21.7345 25.6456C22.066 25.5983 22.5317 25.3614 22.7764 25.1246L28.9965 18.9036C30.0701 17.8299 30.5753 16.5825 28.9965 15.0036C27.4178 13.4247 26.1707 13.9299 25.0971 15.0036Z" stroke="#231F20" style="stroke:#231F20;stroke:color(display-p3 0.1373 0.1216 0.1255);stroke-opacity:1;" stroke-width="2" stroke-miterlimit="10" stroke-linecap="round" stroke-linejoin="round"/>
  <path d="M25 16C25.4069 17.4514 26.5425 18.587 28 19" stroke="#231F20" style="stroke:#231F20;stroke:color(display-p3 0.1373 0.1216 0.1255);stroke-opacity:1;" stroke-width="2" stroke-miterlimit="10" stroke-linecap="round" stroke-linejoin="round"/>
</svg>