<svg width="44" height="44" viewBox="0 0 44 44" fill="none" xmlns="http://www.w3.org/2000/svg">
<path d="M37.0779 40.0549H7.00244C5.33875 40.0549 3.98926 38.7054 3.98926 37.0417V18.584C3.98926 16.9203 5.33875 15.5708 7.00244 15.5708H37.0779C38.7416 15.5708 40.0911 16.9203 40.0911 18.584V37.0417C40.0911 38.7054 38.7416 40.0549 37.0779 40.0549Z" fill="#00AAFF" style="fill:#00AAFF;fill:color(display-p3 0.0000 0.6667 1.0000);fill-opacity:1;"/>
<path d="M33.6903 9.77808H10.3099C8.91614 9.77808 7.78418 10.91 7.78418 12.3038V14.2777H36.2161V12.3038C36.2161 10.906 35.0841 9.77808 33.6903 9.77808Z" fill="#FC592D" style="fill:#FC592D;fill:color(display-p3 0.9882 0.3490 0.1765);fill-opacity:1;"/>
<path d="M30.9912 3.92493H13.174C11.7802 3.92493 10.6482 5.05688 10.6482 6.45068V8.42456H33.521V6.45068C33.517 5.05688 32.389 3.92493 30.9912 3.92493Z" fill="#FFCE00" style="fill:#FFCE00;fill:color(display-p3 1.0000 0.8078 0.0000);fill-opacity:1;"/>
</svg>
