<svg xmlns="http://www.w3.org/2000/svg" width="44" height="44" viewBox="0 0 44 44" fill="none">
  <rect width="44" height="44" rx="22" fill="#231F20" style="fill:#231F20;fill:color(display-p3 0.1373 0.1216 0.1255);fill-opacity:1;"/>
  <path d="M16.6279 22.12L14 25M21.4286 27H27M25.1429 23H27M18.6429 17C18.0919 17 17.5533 17.1759 17.0952 17.5056C16.6371 17.8352 16.28 18.3038 16.0692 18.8519C15.8583 19.4001 15.8032 20.0033 15.9107 20.5853C16.0182 21.1672 16.2835 21.7018 16.6731 22.1213C17.0626 22.5409 17.559 22.8266 18.0994 22.9424C18.6398 23.0581 19.1999 22.9987 19.7089 22.7716C20.2179 22.5446 20.653 22.1601 20.9591 21.6667C21.2652 21.1734 21.4286 20.5933 21.4286 20C21.4286 19.2044 21.1351 18.4413 20.6127 17.8787C20.0902 17.3161 19.3817 17 18.6429 17Z" stroke="#F5F2EE" style="stroke:#F5F2EE;stroke:color(display-p3 0.9625 0.9485 0.9344);stroke-opacity:1;" stroke-width="2" stroke-linecap="round" stroke-linejoin="round"/>
  <path d="M17.9286 14H29.0714C29.3177 14 29.5539 14.0937 29.728 14.2603C29.9022 14.427 30 14.6531 30 14.8889V29.1111C30 29.3469 29.9022 29.573 29.728 29.7397C29.5539 29.9064 29.3177 30 29.0714 30H17.9286C17.6823 30 17.4461 29.9064 17.272 29.7397C17.0978 29.573 17 29.3469 17 29.1111V26.4444" stroke="#F5F2EE" style="stroke:#F5F2EE;stroke:color(display-p3 0.9625 0.9485 0.9344);stroke-opacity:1;" stroke-width="2" stroke-linecap="round" stroke-linejoin="round"/>
</svg>