<svg width="111" height="30" viewBox="0 0 111 30" fill="none" xmlns="http://www.w3.org/2000/svg">
<rect width="30" height="30" rx="15" fill="#231F20" style="fill:#231F20;fill:color(display-p3 0.1373 0.1216 0.1255);fill-opacity:1;"/>
<path d="M15.9714 17.1336H21.5207V12.8059H17.1318C17.1318 14.3829 16.7081 15.8598 15.9714 17.1336Z" fill="#979797" style="fill:#979797;fill:color(display-p3 0.5922 0.5922 0.5922);fill-opacity:1;"/>
<path d="M15.4024 11.0127C15.0132 11.4018 14.6613 11.8282 14.3519 12.2856H21.5216V8.47827C19.1308 8.47827 16.9679 9.44717 15.4024 11.0127Z" fill="#979797" style="fill:#979797;fill:color(display-p3 0.5922 0.5922 0.5922);fill-opacity:1;"/>
<path d="M14.0284 12.8059H8.47913V17.1336H12.868C12.868 15.5566 13.2917 14.0798 14.0284 12.8059Z" fill="#478ECC" style="fill:#478ECC;fill:color(display-p3 0.2784 0.5569 0.8000);fill-opacity:1;"/>
<path d="M8.47827 21.4604C10.8691 21.4604 13.032 20.4915 14.5975 18.926C14.9867 18.5369 15.3386 18.1105 15.648 17.6531H8.47827V21.4604Z" fill="#478ECC" style="fill:#478ECC;fill:color(display-p3 0.2784 0.5569 0.8000);fill-opacity:1;"/>
<path d="M15.9715 17.1336C16.7082 15.8598 17.1319 14.3829 17.1319 12.8059H14.0275C13.2909 14.0798 12.8671 15.5566 12.8671 17.1336H15.9715Z" fill="#005C98" style="fill:#005C98;fill:color(display-p3 0.0000 0.3608 0.5961);fill-opacity:1;"/>
<path d="M39.7256 13.0188C39.7115 12.9361 39.699 12.719 39.6022 12.4863C39.2336 11.571 38.1263 11.571 37.9217 11.571C36.7738 11.571 36.3646 12.1177 36.3646 12.6909C36.3646 12.9782 36.4739 13.1141 36.5551 13.2094C36.7878 13.4686 37.033 13.5233 37.6203 13.7013C38.3996 13.92 39.2055 14.084 39.9567 14.3432C40.6392 14.576 41.228 14.8899 41.6372 15.4771C42.0605 16.0784 42.0745 16.6656 42.0745 16.939C42.0745 17.6215 41.9105 18.1962 41.4873 18.7428C40.9688 19.4253 40.0114 20.0688 38.1528 20.0688C35.7352 20.0688 34.6419 18.9615 34.2452 17.9369C34.1218 17.6496 34.0125 17.281 34 16.6125H36.0772C36.0912 16.9265 36.1319 17.2404 36.2958 17.5418C36.8144 18.443 38.0716 18.4305 38.2637 18.4305C38.3871 18.4305 38.6604 18.4305 38.9743 18.3493C39.8349 18.1166 40.0129 17.4887 40.0129 17.1326C40.0129 16.9967 39.9989 16.7094 39.7131 16.4626C39.3445 16.1752 38.3465 15.9441 37.9232 15.8207C37.5141 15.7114 37.1033 15.588 36.7066 15.4521C35.7367 15.1382 34.8621 14.8243 34.5076 13.7576C34.3717 13.3343 34.3577 12.9923 34.3577 12.8283C34.3577 12.6237 34.3842 12.0911 34.6575 11.571C35.0667 10.7917 36.0382 9.93115 38.0185 9.93115C38.1966 9.93115 38.8244 9.93116 39.3851 10.0811C39.8224 10.2045 41.1203 10.6418 41.5576 12.0349C41.6934 12.4722 41.6934 12.8689 41.7075 13.0329L39.7271 13.0188H39.7256Z" fill="#231F20" style="fill:#231F20;fill:color(display-p3 0.1373 0.1216 0.1255);fill-opacity:1;"/>
<path d="M48.4545 13.4562C49.301 14.1934 49.629 15.232 49.629 16.3112C49.629 16.7626 49.6024 17.9917 48.6591 18.9897C48.2499 19.4129 47.4565 20.0283 46.0493 20.0283C45.8166 20.0283 45.2028 20.0142 44.5875 19.769C43.1256 19.1958 42.4431 17.8293 42.4431 16.3128C42.4431 15.5615 42.593 15.0555 42.7164 14.7822C43.0163 14.0169 43.8909 12.6503 46.0228 12.6238C46.4601 12.6238 47.5252 12.6503 48.4545 13.4578V13.4562ZM44.3704 16.3112C44.3704 17.4451 44.7249 18.0198 45.1763 18.3337C45.5308 18.5664 45.8869 18.5789 46.0509 18.5789C46.1868 18.5789 46.5569 18.5508 46.9114 18.3197C47.5393 17.8824 47.6908 17.0078 47.6908 16.2846C47.6908 15.5615 47.5549 14.8369 46.9536 14.3855C46.585 14.1122 46.1883 14.0856 46.0243 14.0856C45.2325 14.0856 44.3704 14.6588 44.3704 16.3128V16.3112Z" fill="#231F20" style="fill:#231F20;fill:color(display-p3 0.1373 0.1216 0.1255);fill-opacity:1;"/>
<path d="M56.6642 19.8237H54.8338V18.8397C54.6432 19.099 54.5464 19.2224 54.4246 19.3317C54.1372 19.605 53.564 20.0283 52.5941 20.0283C52.2115 20.0283 50.8309 19.933 50.353 18.607C50.203 18.1697 50.189 17.7184 50.189 17.2545V12.8284H52.0881V16.6954C52.1022 17.228 52.0741 17.4201 52.1568 17.6934C52.2521 17.9808 52.5254 18.4181 53.2766 18.4181C53.4266 18.4181 53.8373 18.404 54.1919 18.1166C54.7791 17.6528 54.765 16.9687 54.7791 16.3003V12.8299H56.6642V19.8252V19.8237Z" fill="#231F20" style="fill:#231F20;fill:color(display-p3 0.1373 0.1216 0.1255);fill-opacity:1;"/>
<path d="M66.9803 15.2742C66.9662 15.1914 66.9538 15.0836 66.885 14.9321C66.6664 14.3589 66.1198 14.0716 65.5325 14.0716C64.686 14.0716 63.7833 14.6182 63.7833 16.3674C63.7833 16.6548 63.7833 18.5539 65.5044 18.5539C66.3931 18.5539 66.9256 17.9933 67.0475 17.1468H68.906C68.8107 17.8027 68.6186 18.3634 68.1813 18.8819C67.2521 19.9892 65.9683 20.0298 65.4903 20.0298C64.6438 20.0298 63.8786 19.8518 63.1945 19.3333C62.676 18.9366 61.842 18.062 61.842 16.3955C61.842 16.1628 61.8685 15.4397 62.1418 14.7556C62.4558 13.9763 63.3444 12.6238 65.5028 12.6238C67.6753 12.6378 68.5359 13.881 68.7686 14.7556C68.8092 14.8915 68.8373 15.0008 68.8638 15.2742H66.9787H66.9803Z" fill="#231F20" style="fill:#231F20;fill:color(display-p3 0.1373 0.1216 0.1255);fill-opacity:1;"/>
<path d="M70.9293 16.8172C70.9433 16.9265 70.9433 17.1592 71.0105 17.4045C71.1058 17.8136 71.4338 18.6476 72.6098 18.6476C72.855 18.6476 73.3751 18.607 73.7577 18.0604C73.8124 17.9792 73.8811 17.8699 73.9764 17.6512H75.8068C75.7802 17.7465 75.7256 17.9792 75.6022 18.2244C75.2602 18.935 74.6183 19.5363 73.867 19.8096C73.3204 20.0142 72.7332 20.0283 72.5551 20.0283C72.2959 20.0283 71.6805 20.0142 71.0386 19.755C69.658 19.1818 68.9755 17.7871 68.9895 16.3534C68.9895 14.3043 70.3702 12.6238 72.5005 12.6238C72.8425 12.6238 73.689 12.6644 74.4824 13.2391C76.013 14.3589 75.9302 16.3268 75.9302 16.8188H70.9293V16.8172ZM73.9748 15.5475C73.9607 15.4381 73.9342 15.1242 73.7968 14.8228C73.5516 14.2902 73.0455 13.9763 72.4848 13.9763C71.8976 13.9763 71.3775 14.3043 71.1183 14.8368C71.0355 15.0008 70.9824 15.1789 70.9402 15.5475H73.9732H73.9748Z" fill="#231F20" style="fill:#231F20;fill:color(display-p3 0.1373 0.1216 0.1255);fill-opacity:1;"/>
<path d="M86.8853 19.8237H84.8908L84.9861 12.4051L82.5544 19.8237H80.8879L78.4281 12.4051L78.5093 19.8237H76.5149V10.178H79.5073L81.7344 17.0358L83.921 10.178H86.8853V19.8237Z" fill="#005C98" style="fill:#005C98;fill:color(display-p3 0.0000 0.3608 0.5961);fill-opacity:1;"/>
<path d="M89.2784 16.8172C89.2925 16.9265 89.2925 17.1592 89.3596 17.4045C89.4549 17.8136 89.7829 18.6476 90.9589 18.6476C91.2041 18.6476 91.7242 18.607 92.1068 18.0604C92.1615 17.9792 92.2302 17.8699 92.3255 17.6512H94.1559C94.1278 17.7465 94.0731 17.9792 93.9513 18.2244C93.6093 18.935 92.9674 19.5363 92.2162 19.8096C91.6695 20.0142 91.0823 20.0283 90.9042 20.0283C90.645 20.0283 90.0296 20.0142 89.3877 19.755C88.0071 19.1818 87.3246 17.7871 87.3387 16.3534C87.3387 14.3043 88.7193 12.6238 90.8496 12.6238C91.1916 12.6238 92.0381 12.6644 92.8315 13.2391C94.3621 14.3589 94.2793 16.3268 94.2793 16.8188H89.2784V16.8172ZM92.3255 15.5475C92.3114 15.4381 92.2849 15.1242 92.1474 14.8228C91.9022 14.2902 91.3962 13.9763 90.8355 13.9763C90.2483 13.9763 89.7282 14.3043 89.4689 14.8368C89.3862 15.0008 89.3331 15.1789 89.2909 15.5475H92.3239H92.3255Z" fill="#005C98" style="fill:#005C98;fill:color(display-p3 0.0000 0.3608 0.5961);fill-opacity:1;"/>
<path d="M99.8637 10.178H101.777V19.8237H99.9464V18.9491C99.8512 19.099 99.7684 19.1943 99.7137 19.263C99.4404 19.5769 98.8672 20.0283 97.8427 20.0283C97.0368 20.0283 96.3527 19.7956 95.7655 19.2364C94.6863 18.2119 94.6863 16.736 94.6863 16.2987C94.6863 16.0535 94.6863 15.4241 94.9049 14.7541C95.3282 13.4703 96.3668 12.6222 97.7334 12.6222C98.6892 12.6222 99.278 13.0189 99.5497 13.2922C99.6856 13.4156 99.7543 13.5249 99.8637 13.6748V10.178ZM97.5537 14.2902C97.0758 14.5354 96.6245 15.1242 96.6245 16.2987C96.6245 16.4767 96.6104 17.5278 97.2523 18.1026C97.649 18.4711 98.0863 18.4711 98.2769 18.4711C99.0687 18.4711 99.9168 17.9651 99.9168 16.3127C99.9168 16.1222 99.9449 15.0836 99.2749 14.4964C99.0968 14.3464 98.811 14.1403 98.2644 14.1403C97.9098 14.1403 97.6771 14.2355 97.5537 14.2902Z" fill="#005C98" style="fill:#005C98;fill:color(display-p3 0.0000 0.3608 0.5961);fill-opacity:1;"/>
<path d="M104.798 10.1763H102.338L105.379 14.6071L102.065 19.8235H104.482L106.641 16.3673L108.746 19.8235H111L104.798 10.1763Z" fill="#005C98" style="fill:#005C98;fill:color(display-p3 0.0000 0.3608 0.5961);fill-opacity:1;"/>
<path d="M111 10.1763H108.663L107.395 12.4159H109.557L111 10.1763Z" fill="#005C98" style="fill:#005C98;fill:color(display-p3 0.0000 0.3608 0.5961);fill-opacity:1;"/>
<path d="M61.8025 14.5337C61.7072 14.5103 61.2808 14.415 60.9357 14.415C60.3063 14.415 59.6894 14.7586 59.4879 15.388C59.3926 15.6614 59.3926 15.969 59.3817 16.2548V19.822H57.47V12.8236H59.3817V13.8559C59.4051 13.8091 59.4879 13.631 59.6066 13.4764C60.1766 12.7283 61.0184 12.6689 61.3402 12.6689C61.4714 12.6689 61.5776 12.6814 61.815 12.7408L61.8025 14.5337Z" fill="#231F20" style="fill:#231F20;fill:color(display-p3 0.1373 0.1216 0.1255);fill-opacity:1;"/>
</svg>
