<svg width="44" height="44" viewBox="0 0 44 44" fill="none" xmlns="http://www.w3.org/2000/svg">
<path fill-rule="evenodd" clip-rule="evenodd" d="M17.7966 4.4159C16.5 5.56538 16.5 7.66803 16.5 11.8734V32.1266C16.5 36.3319 16.5 38.4345 17.7966 39.584C19.0932 40.7335 21.0751 40.3877 25.0389 39.6964L29.3084 38.9519C33.6983 38.1861 35.8932 37.8033 37.1967 36.1931C38.5 34.583 38.5 32.2543 38.5 27.5969V16.403C38.5 11.7456 38.5 9.4169 37.1967 7.80676C35.8932 6.1966 33.6983 5.81378 29.3084 5.04811L25.0389 4.30344C21.0751 3.61209 19.0932 3.26642 17.7966 4.4159ZM22 18.6424C22.7594 18.6424 23.375 19.2866 23.375 20.0814V23.9185C23.375 24.7133 22.7594 25.3575 22 25.3575C21.2406 25.3575 20.625 24.7133 20.625 23.9185V20.0814C20.625 19.2866 21.2406 18.6424 22 18.6424Z" fill="#005C98" style="fill:#005C98;fill:color(display-p3 0.0000 0.3608 0.5961);fill-opacity:1;"/>
<path d="M13.8365 8.25C10.063 8.2555 8.09598 8.33848 6.84242 9.59204C5.5 10.9345 5.5 13.0951 5.5 17.4163V26.583C5.5 30.9041 5.5 33.0647 6.84242 34.4073C8.09598 35.6607 10.063 35.7438 13.8365 35.7493C13.7497 34.6066 13.7499 33.2855 13.75 31.8575V12.1416C13.7499 10.7138 13.7497 9.39272 13.8365 8.25Z" fill="#005C98" style="fill:#005C98;fill:color(display-p3 0.0000 0.3608 0.5961);fill-opacity:1;"/>
</svg>
