<svg xmlns="http://www.w3.org/2000/svg" width="110" height="110" viewBox="0 0 110 110" fill="none">
<rect width="110" height="110" rx="55" style="fill-opacity:1;"/>
<path d="M59.1716 64.161H82.9967V45.5804H64.1536C64.1536 52.3512 62.3344 58.6919 59.1716 64.161Z" fill="#979797" style="fill:#979797;fill:color(display-p3 0.5922 0.5922 0.5922);fill-opacity:1;"/>
<path d="M56.7278 37.881C55.057 39.5518 53.546 41.3825 52.2178 43.3463H83.0001V26.9999C72.7355 26.9999 63.4491 31.1598 56.7278 37.881Z" fill="#979797" style="fill:#979797;fill:color(display-p3 0.5922 0.5922 0.5922);fill-opacity:1;"/>
<path d="M50.829 45.5806H27.0039V64.1611H45.8471C45.8471 57.3904 47.6663 51.0497 50.829 45.5806Z" fill="#478ECC" style="fill:#478ECC;fill:color(display-p3 0.2784 0.5569 0.8000);fill-opacity:1;"/>
<path d="M26.9998 82.7376C37.2643 82.7376 46.5508 78.5778 53.2721 71.8565C54.9429 70.1857 56.4538 68.355 57.7821 66.3912H26.9998V82.7376Z" fill="#478ECC" style="fill:#478ECC;fill:color(display-p3 0.2784 0.5569 0.8000);fill-opacity:1;"/>
<path d="M59.1709 64.1611C62.3336 58.692 64.1528 52.3513 64.1528 45.5806H50.8245C47.6618 51.0497 45.8425 57.3904 45.8425 64.1611H59.1709Z" fill="#005C98" style="fill:#005C98;fill:color(display-p3 0.0000 0.3608 0.5961);fill-opacity:1;"/>
</svg>