<svg width="44" height="44" viewBox="0 0 44 44" fill="none" xmlns="http://www.w3.org/2000/svg">
<rect x="0.5" y="0.5" width="43" height="43" rx="21.5" fill="white" style="fill:white;fill-opacity:1;"/>
<rect x="0.5" y="0.5" width="43" height="43" rx="21.5" stroke="#231F20" style="stroke:#231F20;stroke:color(display-p3 0.1373 0.1216 0.1255);stroke-opacity:1;"/>
<path d="M18.129 13.9355C18.6635 13.9355 19.0968 13.5022 19.0968 12.9677C19.0968 12.4333 18.6635 12 18.129 12V13.9355ZM12 20.7097C12 21.2441 12.4333 21.6774 12.9677 21.6774C13.5022 21.6774 13.9355 21.2441 13.9355 20.7097H12ZM18.129 12C17.5946 12 17.1613 12.4333 17.1613 12.9677C17.1613 13.5022 17.5946 13.9355 18.129 13.9355V12ZM30.0645 20.7097C30.0645 21.2441 30.4978 21.6774 31.0323 21.6774C31.5667 21.6774 32 21.2441 32 20.7097H30.0645ZM19.0968 12.9677C19.0968 12.4333 18.6635 12 18.129 12C17.5946 12 17.1613 12.4333 17.1613 12.9677H19.0968ZM17.1613 20.7097C17.1613 21.2441 17.5946 21.6774 18.129 21.6774C18.6635 21.6774 19.0968 21.2441 19.0968 20.7097H17.1613ZM18.129 21.6774C18.6635 21.6774 19.0968 21.2441 19.0968 20.7097C19.0968 20.1752 18.6635 19.7419 18.129 19.7419V21.6774ZM12.9677 19.7419C12.4333 19.7419 12 20.1752 12 20.7097C12 21.2441 12.4333 21.6774 12.9677 21.6774V19.7419ZM18.129 19.7419C17.5946 19.7419 17.1613 20.1752 17.1613 20.7097C17.1613 21.2441 17.5946 21.6774 18.129 21.6774V19.7419ZM31.0323 21.6774C31.5667 21.6774 32 21.2441 32 20.7097C32 20.1752 31.5667 19.7419 31.0323 19.7419V21.6774ZM13.9355 20.7097C13.9355 20.1752 13.5022 19.7419 12.9677 19.7419C12.4333 19.7419 12 20.1752 12 20.7097H13.9355ZM32 20.7097C32 20.1752 31.5667 19.7419 31.0323 19.7419C30.4978 19.7419 30.0645 20.1752 30.0645 20.7097H32ZM18.129 12C14.7441 12 12 14.7441 12 18.129H13.9355C13.9355 15.813 15.813 13.9355 18.129 13.9355V12ZM12 18.129V20.7097H13.9355V18.129H12ZM18.129 13.9355H25.871V12H18.129V13.9355ZM25.871 13.9355C28.187 13.9355 30.0645 15.813 30.0645 18.129H32C32 14.7441 29.256 12 25.871 12V13.9355ZM30.0645 18.129V20.7097H32V18.129H30.0645ZM17.1613 12.9677V20.7097H19.0968V12.9677H17.1613ZM18.129 19.7419H12.9677V21.6774H18.129V19.7419ZM18.129 21.6774H31.0323V19.7419H18.129V21.6774ZM12 20.7097V25.871H13.9355V20.7097H12ZM12 25.871C12 29.256 14.7441 32 18.129 32V30.0645C15.813 30.0645 13.9355 28.187 13.9355 25.871H12ZM18.129 32H25.871V30.0645H18.129V32ZM25.871 32C29.256 32 32 29.256 32 25.871H30.0645C30.0645 28.187 28.187 30.0645 25.871 30.0645V32ZM32 25.871V20.7097H30.0645V25.871H32Z" fill="#231F20" style="fill:#231F20;fill:color(display-p3 0.1373 0.1216 0.1255);fill-opacity:1;"/>
</svg>
