<svg width="262" height="35" viewBox="0 0 262 35" fill="none" xmlns="http://www.w3.org/2000/svg">
<path d="M19.4216 10.4737C19.374 10.1929 19.3316 9.45654 19.0031 8.66717C17.7528 5.56267 13.9967 5.56266 13.3027 5.56266C9.40885 5.56266 8.02083 7.41689 8.02083 9.36117C8.02083 10.336 8.39167 10.7969 8.66716 11.12C9.45653 11.9995 10.2883 12.1849 12.2802 12.7888C14.9238 13.5305 17.6575 14.0868 20.2057 14.9662C22.5208 15.7556 24.5181 16.8204 25.9061 18.8124C27.3418 20.852 27.3895 22.844 27.3895 23.7711C27.3895 26.0862 26.8332 28.0358 25.3975 29.89C23.6387 32.2052 20.3911 34.3879 14.0868 34.3879C5.88583 34.3879 2.17738 30.6317 0.831746 27.1564C0.413222 26.1816 0.0423822 24.9313 0 22.6639H7.04603C7.09371 23.7287 7.23146 24.7936 7.78773 25.8161C9.54659 28.8729 13.8113 28.8305 14.4629 28.8305C14.8814 28.8305 15.8086 28.8305 16.8734 28.555C19.7925 27.7656 20.3964 25.6359 20.3964 24.428C20.3964 23.9671 20.3488 22.9923 19.3793 22.1553C18.129 21.1805 14.7437 20.3964 13.308 19.9779C11.92 19.6071 10.5267 19.1885 9.18104 18.7276C5.89113 17.6628 2.92437 16.5979 1.72178 12.9795C1.26087 11.5438 1.21319 10.3836 1.21319 9.82738C1.21319 9.13337 1.30325 7.32682 2.23036 5.56266C3.61838 2.91907 6.91359 0 13.6312 0C14.2351 0 16.3648 1.1652e-05 18.2667 0.508598C19.7501 0.927122 24.1526 2.41049 25.6359 7.1361C26.0968 8.61948 26.0968 9.96512 26.1445 10.5214L19.4269 10.4737H19.4216Z" fill="#231F20" style="fill:#231F20;fill:color(display-p3 0.1373 0.1216 0.1255);fill-opacity:1;"/>
<path d="M49.0309 11.9572C51.9023 14.4577 53.0149 17.9808 53.0149 21.6415C53.0149 23.1726 52.9248 27.3419 49.725 30.7272C48.3369 32.1629 45.6457 34.2502 40.8724 34.2502C40.083 34.2502 38.001 34.2026 35.9137 33.3708C30.9549 31.4265 28.6398 26.791 28.6398 21.6468C28.6398 19.0986 29.1484 17.3821 29.5669 16.455C30.5841 13.8591 33.5509 9.22355 40.7823 9.13348C42.2657 9.13348 45.8788 9.22354 49.0309 11.9625V11.9572ZM35.1773 21.6415C35.1773 25.4877 36.3799 27.4373 37.9109 28.5021C39.1135 29.2915 40.3214 29.3339 40.8777 29.3339C41.3386 29.3339 42.5942 29.2385 43.7967 28.4545C45.9265 26.9711 46.4403 24.0043 46.4403 21.5515C46.4403 19.0986 45.9794 16.6404 43.9398 15.1094C42.6895 14.1823 41.3439 14.0922 40.7876 14.0922C38.1016 14.0922 35.1773 16.0365 35.1773 21.6468V21.6415Z" fill="#231F20" style="fill:#231F20;fill:color(display-p3 0.1373 0.1216 0.1255);fill-opacity:1;"/>
<path d="M76.8812 33.5561H70.6722V30.2185C70.0259 31.0979 69.6974 31.5165 69.2842 31.8873C68.3094 32.8144 66.3651 34.2501 63.0752 34.2501C61.7772 34.2501 57.094 33.927 55.4729 29.4292C54.9643 27.9458 54.9166 26.4147 54.9166 24.8413V9.82739H61.3587V22.9447C61.4064 24.7512 61.311 25.4028 61.5918 26.33C61.915 27.3047 62.8421 28.7881 65.3903 28.7881C65.8989 28.7881 67.2922 28.7404 68.4948 27.7656C70.4868 26.1922 70.4391 23.8718 70.4868 21.6043V9.83268H76.8812V33.5614V33.5561Z" fill="#231F20" style="fill:#231F20;fill:color(display-p3 0.1373 0.1216 0.1255);fill-opacity:1;"/>
<path d="M111.873 18.1238C111.826 17.843 111.783 17.4775 111.55 16.9636C110.808 15.0193 108.954 14.0445 106.962 14.0445C104.091 14.0445 101.029 15.8987 101.029 21.8322C101.029 22.807 101.029 29.2491 106.867 29.2491C109.881 29.2491 111.688 27.3472 112.101 24.4758H118.405C118.082 26.7009 117.431 28.6028 115.947 30.3617C112.795 34.1178 108.44 34.2555 106.819 34.2555C103.948 34.2555 101.352 33.6516 99.0314 31.8927C97.2725 30.5471 94.4435 27.5803 94.4435 21.9276C94.4435 21.1382 94.5336 18.6854 95.4607 16.3649C96.5255 13.7214 99.54 9.13348 106.862 9.13348C114.231 9.18116 117.15 13.3982 117.939 16.3649C118.077 16.8258 118.172 17.1967 118.262 18.1238H111.868H111.873Z" fill="#231F20" style="fill:#231F20;fill:color(display-p3 0.1373 0.1216 0.1255);fill-opacity:1;"/>
<path d="M125.266 23.358C125.313 23.7288 125.313 24.5182 125.541 25.35C125.864 26.738 126.977 29.567 130.966 29.567C131.798 29.567 133.562 29.4293 134.86 27.575C135.045 27.2995 135.279 26.9287 135.602 26.187H141.811C141.721 26.5102 141.535 27.2995 141.117 28.1313C139.956 30.5418 137.779 32.5814 135.231 33.5085C133.377 34.2025 131.385 34.2502 130.781 34.2502C129.901 34.2502 127.814 34.2026 125.637 33.3231C120.953 31.3788 118.638 26.6479 118.686 21.7846C118.686 14.8339 123.369 9.13348 130.595 9.13348C131.756 9.13348 134.627 9.27123 137.318 11.2208C142.51 15.0193 142.229 21.6945 142.229 23.3633H125.266V23.358ZM135.596 19.0509C135.549 18.6801 135.459 17.6152 134.992 16.5927C134.161 14.7862 132.444 13.7214 130.542 13.7214C128.55 13.7214 126.786 14.8339 125.907 16.6404C125.626 17.1967 125.446 17.8006 125.303 19.0509H135.591H135.596Z" fill="#231F20" style="fill:#231F20;fill:color(display-p3 0.1373 0.1216 0.1255);fill-opacity:1;"/>
<path d="M179.393 33.5563H172.628L172.951 8.3919L164.703 33.5563H159.05L150.706 8.3919L150.981 33.5563H144.216V0.83728H154.367L161.921 24.0998L169.338 0.83728H179.393V33.5563Z" fill="#005C98" style="fill:#005C98;fill:color(display-p3 0.0000 0.3608 0.5961);fill-opacity:1;"/>
<path d="M187.509 23.358C187.557 23.7288 187.557 24.5182 187.785 25.35C188.108 26.738 189.221 29.567 193.21 29.567C194.042 29.567 195.806 29.4293 197.104 27.575C197.289 27.2995 197.522 26.9287 197.845 26.187H204.054C203.959 26.5102 203.774 27.2995 203.36 28.1313C202.2 30.5418 200.023 32.5814 197.474 33.5085C195.62 34.2025 193.628 34.2502 193.024 34.2502C192.145 34.2502 190.058 34.2026 187.88 33.3231C183.197 31.3788 180.882 26.6479 180.93 21.7846C180.93 14.8339 185.613 9.13348 192.839 9.13348C193.999 9.13348 196.871 9.27123 199.562 11.2208C204.754 15.0193 204.473 21.6945 204.473 23.3633H187.509V23.358ZM197.845 19.0509C197.798 18.6801 197.708 17.6152 197.241 16.5927C196.41 14.7862 194.693 13.7214 192.791 13.7214C190.799 13.7214 189.035 14.8339 188.156 16.6404C187.875 17.1967 187.695 17.8006 187.552 19.0509H197.84H197.845Z" fill="#005C98" style="fill:#005C98;fill:color(display-p3 0.0000 0.3608 0.5961);fill-opacity:1;"/>
<path d="M223.418 0.83728H229.908V33.5563H223.699V30.5896C223.375 31.0982 223.095 31.4213 222.909 31.6544C221.982 32.7193 220.038 34.2503 216.562 34.2503C213.829 34.2503 211.508 33.461 209.516 31.5644C205.856 28.089 205.856 23.0826 205.856 21.5993C205.856 20.7675 205.856 18.6325 206.597 16.3598C208.033 12.005 211.556 9.12829 216.192 9.12829C219.434 9.12829 221.431 10.4739 222.353 11.401C222.814 11.8196 223.047 12.1904 223.418 12.699V0.83728ZM215.582 14.7863C213.961 15.6181 212.43 17.6153 212.43 21.5993C212.43 22.2032 212.383 25.7686 214.56 27.7182C215.906 28.9685 217.389 28.9685 218.035 28.9685C220.721 28.9685 223.598 27.252 223.598 21.6469C223.598 21.0006 223.693 17.4776 221.421 15.4856C220.817 14.977 219.847 14.2777 217.993 14.2777C216.79 14.2777 216.001 14.6009 215.582 14.7863Z" fill="#005C98" style="fill:#005C98;fill:color(display-p3 0.0000 0.3608 0.5961);fill-opacity:1;"/>
<path d="M240.153 0.831848H231.809L242.124 15.8616L230.882 33.5562H239.083L246.405 21.8322L253.546 33.5562H261.191L240.153 0.831848Z" fill="#005C98" style="fill:#005C98;fill:color(display-p3 0.0000 0.3608 0.5961);fill-opacity:1;"/>
<path d="M261.191 0.831848H253.265L248.964 8.42885H256.296L261.191 0.831848Z" fill="#005C98" style="fill:#005C98;fill:color(display-p3 0.0000 0.3608 0.5961);fill-opacity:1;"/>
<path d="M94.3108 15.6128C93.9876 15.5333 92.5413 15.2102 91.3705 15.2102C89.2355 15.2102 87.1429 16.3757 86.4595 18.5107C86.1363 19.4378 86.1363 20.4814 86.0993 21.4509V33.551H79.6148V9.81172H86.0993V13.3135C86.1787 13.1546 86.4595 12.5507 86.8621 12.0262C88.7958 9.48855 91.6513 9.28723 92.7427 9.28723C93.1877 9.28723 93.5479 9.32963 94.3532 9.53094L94.3108 15.6128Z" fill="#231F20" style="fill:#231F20;fill:color(display-p3 0.1373 0.1216 0.1255);fill-opacity:1;"/>
</svg>
